<?xml version="1.0" encoding="UTF-8" standalone="no"?>
<!DOCTYPE svg PUBLIC "-//W3C//DTD SVG 20010904//EN"
"http://www.w3.org/TR/2001/REC-SVG-20010904/DTD/svg10.dtd">
<svg xmlns="http://www.w3.org/2000/svg" width="2000" height="300" viewBox="0 0 201 30"><path d="M116.303 6.396h-2.525l-7.337 17.638 3.657.017 1.908-4.578h6.27l1.925 4.551h3.567l-7.465-17.628zm-3.073 9.866l1.855-5.301 1.904 5.3h-3.759zm-52.478-6.71v4.092h5.967v3.165h-5.94l-.02 4.063h6.208v3.165h-9.538V6.387h9.525L67 9.57l-6.248-.02zm67.39 1.432a6.269 6.269 0 000 8.482 5.395 5.395 0 004.181 1.845 5.997 5.997 0 002.235-.416 5.148 5.148 0 001.878-1.29l.3-.33h3.796l-.212.406a8.972 8.972 0 01-14.35 2.188 9.04 9.04 0 01-2.64-6.63 8.884 8.884 0 012.656-6.575 8.678 8.678 0 016.35-2.64 9.05 9.05 0 014.621 1.267 8.666 8.666 0 013.354 3.515l.33.6h-3.763l-.406-.438a5.17 5.17 0 00-1.878-1.32 5.882 5.882 0 00-2.244-.453 5.475 5.475 0 00-4.208 1.789zm-34.408-.007a6.055 6.055 0 00-1.65 4.271 6.13 6.13 0 001.65 4.225 5.404 5.404 0 004.185 1.845 6.02 6.02 0 002.231-.416 5.184 5.184 0 001.881-1.29l.3-.33h3.796l-.214.405a9.028 9.028 0 01-17.011-4.442 8.914 8.914 0 012.66-6.575 8.67 8.67 0 016.347-2.64 9.037 9.037 0 014.644 1.254 8.654 8.654 0 013.357 3.515l.33.6h-3.773l-.406-.438a5.226 5.226 0 00-1.881-1.32 5.922 5.922 0 00-2.264-.45 5.484 5.484 0 00-4.182 1.786zm58.59-4.574h3.278v17.658h-3.278v-7.288h-6.198v7.288h-3.215V6.403h3.222v7.202h6.195l-.004-7.202zM84.43 8.611a8.874 8.874 0 00-6.538-2.67 9.294 9.294 0 00-9.318 9.264v.027a9.315 9.315 0 009.278 9.261 8.88 8.88 0 006.525-2.71 8.91 8.91 0 002.703-6.535 9.005 9.005 0 00-2.65-6.637zm-2.416 10.812a5.635 5.635 0 01-4.188 1.763 5.824 5.824 0 01-4.225-1.713 5.668 5.668 0 01-1.766-4.218 5.746 5.746 0 011.766-4.225 5.866 5.866 0 014.29-1.756 5.52 5.52 0 014.163 1.793 5.883 5.883 0 011.686 4.175 5.752 5.752 0 01-1.726 4.181zm76.74-13.017h3.224v17.655h-3.224V6.406zm17.344 0h3.3v17.658h-3.63l-7.308-12.81v12.81h-3.277V6.406h3.63l7.295 12.935-.01-12.935zM55.052 15.017c-.046 4.218-2.64 9.463-9.416 9.463-6.446 0-9.463-4.911-9.463-9.176 0-4.264 3.212-9.297 9.417-9.297 4.073 0 7.26 2.063 8.581 5.535h-3.934C48.87 9.29 46.428 9.195 45.59 9.195c-4.146 0-6.136 3.212-6.136 5.99 0 3.017 2.205 6.11 6.271 6.11 2.159 0 4.218-.99 5.175-3.188h-7.396v-3.09h11.548zm145.674 0c-.05 4.218-2.64 9.463-9.416 9.463-6.446 0-9.466-4.911-9.466-9.176 0-4.264 3.211-9.297 9.416-9.297 4.073 0 7.261 2.063 8.582 5.535h-3.928c-1.366-2.251-3.812-2.347-4.65-2.347-4.146 0-6.133 3.212-6.133 5.99 0 3.017 2.205 6.11 6.271 6.11 2.155 0 4.215-.99 5.175-3.188h-7.4v-3.09h11.55zM31.626.294a1.25 1.25 0 11.128 2.498h-.129a1.217 1.217 0 01-1.244-1.191v-.053c-.01-.323.11-.637.33-.872.223-.235.529-.373.852-.382h.062zm0 2.29a1.008 1.008 0 001.049-.97v-.066a1.031 1.031 0 00-.974-1.08 1.03 1.03 0 00-1.089 1.08.992.992 0 00.944 1.036h.07zm-.49-1.65h.549a.4.4 0 01.442.35.262.262 0 010 .056.373.373 0 01-.304.37l.33.383v.052h-.3l-.353-.419h-.116v.42h-.277l.03-1.212zm.278.231v.357h.27a.174.174 0 00.186-.159v-.02a.173.173 0 00-.043-.122.171.171 0 00-.116-.056h-.297zM29.681 16.23v13.763h-8.129l-1.59-6.42c.66-.779 1.32-1.135 2.9-1.383 1.675-.2 3.06-1.4 3.496-3.03-1.383.33-2.492 0-3.8-.33a6.397 6.397 0 00-3.699.126c-.894.31-1.112.604-1.112.604l2.587 10.426h-4.419v-13.75l13.766-.006zM13.84.386v13.76H4.928c.05-2.367.871-4.918 2.455-6.47a7.717 7.717 0 012.97 4.754h2.288a8.75 8.75 0 00-3.96-5.75c2.214-1.762 2.64-3.607 2.64-4.587h-.901c-.136.92-.63 2.31-3.053 3.736C4.802 4.34 4.413 3.02 4.317 2.093h-.884c0 1.052.442 2.947 2.64 4.59a12.005 12.005 0 00-3.41 7.463h-2.6V.38l13.776.006zM8.522 3.604a1.156 1.156 0 10-1.169 1.142 1.146 1.146 0 001.155-1.142h.014zM15.915.38v2.59a12.218 12.218 0 016.743 2.756L21.07 7.327a9.97 9.97 0 00-5.155-2.096v8.912h8.911a9.958 9.958 0 00-2.076-5.126l1.591-1.59a12.176 12.176 0 012.723 6.719h2.607V.38H15.915zM7.113 24.665l1.59-1.591a9.955 9.955 0 005.123 2.072v-8.91H4.914a9.993 9.993 0 002.096 5.151l-1.587 1.591a12.179 12.179 0 01-2.756-6.743H.063v13.763h13.763v-2.604a12.206 12.206 0 01-6.713-2.73z" fill="#02874d"></path></svg>